<mxfile host="app.diagrams.net" modified="2021-08-29T02:29:18.659Z" agent="5.0 (Macintosh; Intel Mac OS X 10_15_7) AppleWebKit/537.36 (KHTML, like Gecko) Chrome/92.0.4515.159 Safari/537.36" etag="UWWoeB9mF7rj2kIfwEqj" version="14.9.9" type="github">
  <diagram id="LfNrprVWWR1MZN8_VWSe" name="第 1 页">
    <mxGraphModel dx="946" dy="589" grid="1" gridSize="10" guides="1" tooltips="1" connect="1" arrows="1" fold="1" page="1" pageScale="1" pageWidth="827" pageHeight="1169" math="0" shadow="0">
      <root>
        <mxCell id="0" />
        <mxCell id="1" parent="0" />
        <mxCell id="pu8bkF2wSAF35LtkLRvH-7" value="" style="edgeStyle=orthogonalEdgeStyle;rounded=0;orthogonalLoop=1;jettySize=auto;html=1;" edge="1" parent="1" source="pu8bkF2wSAF35LtkLRvH-1" target="pu8bkF2wSAF35LtkLRvH-6">
          <mxGeometry relative="1" as="geometry" />
        </mxCell>
        <mxCell id="pu8bkF2wSAF35LtkLRvH-1" value="呼叫" style="rounded=0;whiteSpace=wrap;html=1;" vertex="1" parent="1">
          <mxGeometry x="360" y="80" width="80" height="40" as="geometry" />
        </mxCell>
        <mxCell id="pu8bkF2wSAF35LtkLRvH-11" value="Y" style="edgeStyle=orthogonalEdgeStyle;rounded=0;orthogonalLoop=1;jettySize=auto;html=1;" edge="1" parent="1" source="pu8bkF2wSAF35LtkLRvH-6" target="pu8bkF2wSAF35LtkLRvH-10">
          <mxGeometry relative="1" as="geometry" />
        </mxCell>
        <mxCell id="pu8bkF2wSAF35LtkLRvH-17" value="" style="edgeStyle=orthogonalEdgeStyle;rounded=0;orthogonalLoop=1;jettySize=auto;html=1;" edge="1" parent="1" source="pu8bkF2wSAF35LtkLRvH-6" target="pu8bkF2wSAF35LtkLRvH-16">
          <mxGeometry relative="1" as="geometry" />
        </mxCell>
        <mxCell id="pu8bkF2wSAF35LtkLRvH-19" style="edgeStyle=orthogonalEdgeStyle;rounded=0;orthogonalLoop=1;jettySize=auto;html=1;exitX=1;exitY=0.5;exitDx=0;exitDy=0;" edge="1" parent="1" source="pu8bkF2wSAF35LtkLRvH-6">
          <mxGeometry relative="1" as="geometry">
            <mxPoint x="400" y="490" as="targetPoint" />
            <Array as="points">
              <mxPoint x="470" y="180" />
              <mxPoint x="470" y="490" />
              <mxPoint x="400" y="490" />
            </Array>
          </mxGeometry>
        </mxCell>
        <mxCell id="pu8bkF2wSAF35LtkLRvH-6" value="虚拟呼叫" style="rhombus;whiteSpace=wrap;html=1;rounded=0;" vertex="1" parent="1">
          <mxGeometry x="360" y="140" width="80" height="80" as="geometry" />
        </mxCell>
        <mxCell id="pu8bkF2wSAF35LtkLRvH-13" value="" style="edgeStyle=orthogonalEdgeStyle;rounded=0;orthogonalLoop=1;jettySize=auto;html=1;" edge="1" parent="1" source="pu8bkF2wSAF35LtkLRvH-10" target="pu8bkF2wSAF35LtkLRvH-12">
          <mxGeometry relative="1" as="geometry" />
        </mxCell>
        <mxCell id="pu8bkF2wSAF35LtkLRvH-14" value="Success" style="edgeLabel;html=1;align=center;verticalAlign=middle;resizable=0;points=[];" vertex="1" connectable="0" parent="pu8bkF2wSAF35LtkLRvH-13">
          <mxGeometry x="-0.3714" y="1" relative="1" as="geometry">
            <mxPoint as="offset" />
          </mxGeometry>
        </mxCell>
        <mxCell id="pu8bkF2wSAF35LtkLRvH-15" style="edgeStyle=orthogonalEdgeStyle;rounded=0;orthogonalLoop=1;jettySize=auto;html=1;exitX=0;exitY=0.5;exitDx=0;exitDy=0;entryX=0;entryY=0.5;entryDx=0;entryDy=0;" edge="1" parent="1" source="pu8bkF2wSAF35LtkLRvH-10" target="pu8bkF2wSAF35LtkLRvH-6">
          <mxGeometry relative="1" as="geometry" />
        </mxCell>
        <mxCell id="pu8bkF2wSAF35LtkLRvH-10" value="为客户申请虚拟号" style="rhombus;whiteSpace=wrap;html=1;rounded=0;" vertex="1" parent="1">
          <mxGeometry x="360" y="270" width="80" height="80" as="geometry" />
        </mxCell>
        <mxCell id="pu8bkF2wSAF35LtkLRvH-12" value="返回虚拟号" style="whiteSpace=wrap;html=1;rounded=0;" vertex="1" parent="1">
          <mxGeometry x="350" y="400" width="100" height="60" as="geometry" />
        </mxCell>
        <mxCell id="pu8bkF2wSAF35LtkLRvH-22" value="" style="edgeStyle=orthogonalEdgeStyle;rounded=0;orthogonalLoop=1;jettySize=auto;html=1;" edge="1" parent="1" source="pu8bkF2wSAF35LtkLRvH-16" target="pu8bkF2wSAF35LtkLRvH-21">
          <mxGeometry relative="1" as="geometry" />
        </mxCell>
        <mxCell id="pu8bkF2wSAF35LtkLRvH-16" value="云呼" style="whiteSpace=wrap;html=1;rounded=0;" vertex="1" parent="1">
          <mxGeometry x="360" y="520" width="80" height="40" as="geometry" />
        </mxCell>
        <mxCell id="pu8bkF2wSAF35LtkLRvH-21" value="返回通话录音到跟进记录" style="whiteSpace=wrap;html=1;rounded=0;" vertex="1" parent="1">
          <mxGeometry x="340" y="590" width="120" height="60" as="geometry" />
        </mxCell>
      </root>
    </mxGraphModel>
  </diagram>
</mxfile>
